<svg width="80" height="80" viewBox="0 0 80 80" fill="none" xmlns="http://www.w3.org/2000/svg">
<path d="M55.2553 80H24.7447C8.91588 80 0 70.916 0 55.2553V24.7447C0 9.08403 8.91588 0 24.7447 0H55.2553C71.4167 0 80 8.75146 80 24.7447V55.2553C80 71.2485 71.4167 80 55.2553 80Z" fill="white"/>
<path d="M51.3959 54.5041C49.8991 54.5041 48.5653 54.0395 47.4613 53.1296C46.1423 52.0583 45.0938 50.4611 45.0568 48.5835C45.0382 47.6352 46.0349 47.6352 46.0349 47.6352C46.0349 47.6352 47.6539 47.616 48.4394 47.616C49.2248 47.6352 49.4545 48.7678 49.4916 49.052C49.7954 51.5976 51.1847 52.7072 52.2518 53.214C52.8927 53.5174 52.7334 54.4657 51.3959 54.508V54.5041Z" fill="#263238"/>
<path d="M37.9549 41.5687C36.6359 41.4074 34.6797 41.2692 33.4163 40.9467C31.3675 40.4245 31.4231 38.5163 31.512 37.8943C31.7602 36.0282 32.4197 34.3004 33.4349 32.6955C34.6982 30.7296 36.5137 29.0018 38.8478 27.5966C43.227 24.9665 49.3512 23.4998 56.0794 23.4998C61.0107 23.4998 66.1568 24.164 66.2087 24.164C66.6718 24.2254 67.009 24.6862 66.9904 25.2084C66.9719 25.7305 66.6162 26.1299 66.1531 26.1721C65.4047 26.1529 64.6748 26.1529 63.982 26.1529C57.1279 26.1529 52.2485 27.1166 48.6177 29.2053C45.0387 31.2518 42.5453 34.3849 40.8558 39.0231C40.678 39.4262 40.0889 41.8144 37.9549 41.5725V41.5687Z" fill="#263238"/>
<path d="M43.9348 60.709C40.5337 60.7819 37.3289 59.1885 34.9022 56.4087C32.846 54.055 31.6085 51.6822 31.3788 48.6374C31.238 46.6485 32.0865 45.9612 33.2387 46.0802C34.0352 46.1609 36.5138 46.2837 37.9328 46.5871C38.9962 46.8098 39.7038 47.4203 39.8816 48.6758C40.819 55.372 44.8944 58.0059 47.3211 58.5742C47.7472 58.674 48.0102 58.9581 47.9954 59.4688C47.9769 59.9564 47.7064 60.6245 43.9385 60.7051L43.9348 60.709Z" fill="#263238"/>
<path d="M34.246 66.6527C31.8341 66.7564 29.4741 66.2534 28.7998 66.1305C25.9618 65.6084 23.5832 64.7061 21.5455 63.3661C16.6661 60.1639 13.7207 54.5082 13.3687 47.812C13.2798 46.2224 13.0835 43.1853 16.7402 43.4157C18.2481 43.5002 20.6415 44.2527 22.3273 44.7557C24.4205 45.3624 25.432 47.0364 25.432 48.6913C25.432 58.1327 33.6829 64.372 37.2841 64.372C38.1436 64.372 38.3474 64.9019 38.2436 65.4087C38.1621 65.8119 37.9435 66.4953 34.2497 66.6566L34.246 66.6527Z" fill="#263238"/>
<path d="M21.6602 38.9077C20.2338 38.6428 18.8408 38.0323 17.4848 37.6829C13.2908 36.604 14.0058 32.2192 14.3986 31.0174C18.2147 19.3759 30.3298 15.4826 40.1071 14.442C49.3138 13.463 58.9467 14.2194 67.92 16.8072C68.561 16.9838 70.3282 17.4254 69.9466 18.5005C69.565 19.5755 68.5017 18.8268 58.7133 18.6041C55.4863 18.5312 52.263 18.7424 49.0286 19.2569C43.4786 20.1323 37.773 21.9484 33.1863 25.7803C30.9744 27.6348 29.0293 29.9999 27.7289 32.7951C27.3881 33.5285 27.1213 34.2618 26.8916 34.9952C26.6582 35.7708 25.7838 39.6641 21.6639 38.9115L21.6602 38.9077Z" fill="#263238"/>
<path d="M45.1311 41.1543C45.9166 37.5105 49.4066 31.7358 60.2102 32.1351C62.6888 32.2158 61.5551 33.9666 60.3325 33.9282C54.223 33.7094 51.3258 37.7908 49.8068 41.9298C49.3177 43.2622 48.2025 43.4618 46.8058 43.2238C45.8277 43.0433 44.7643 42.9243 45.1311 41.1543Z" fill="#263238"/>
</svg>